<svg width="20" height="20" viewBox="0 0 20 20" fill="none" xmlns="http://www.w3.org/2000/svg">
<path d="M7.85779 3.09515C7.85779 2.69931 7.53934 2.38086 7.14351 2.38086C6.74767 2.38086 6.42922 2.69931 6.42922 3.09515V4.28562H5.23875C4.18815 4.28562 3.33398 5.13979 3.33398 6.19038V6.66657V8.09515V15.7142C3.33398 16.7648 4.18815 17.619 5.23875 17.619H14.7626C15.8132 17.619 16.6673 16.7648 16.6673 15.7142V8.09515V6.66657V6.19038C16.6673 5.13979 15.8132 4.28562 14.7626 4.28562H13.5721V3.09515C13.5721 2.69931 13.2536 2.38086 12.8578 2.38086C12.462 2.38086 12.1435 2.69931 12.1435 3.09515V4.28562H7.85779V3.09515ZM4.76256 8.09515H7.14351V9.76181H4.76256V8.09515ZM4.76256 11.1904H7.14351V13.0951H4.76256V11.1904ZM8.57208 11.1904H11.4292V13.0951H8.57208V11.1904ZM12.8578 11.1904H15.2387V13.0951H12.8578V11.1904ZM15.2387 9.76181H12.8578V8.09515H15.2387V9.76181ZM15.2387 14.5237V15.7142C15.2387 15.9761 15.0245 16.1904 14.7626 16.1904H12.8578V14.5237H15.2387ZM11.4292 14.5237V16.1904H8.57208V14.5237H11.4292ZM7.14351 14.5237V16.1904H5.23875C4.97684 16.1904 4.76256 15.9761 4.76256 15.7142V14.5237H7.14351ZM11.4292 9.76181H8.57208V8.09515H11.4292V9.76181Z" fill="#4F4F4F"/>
</svg>
