<svg width="20" height="20" viewBox="0 0 20 20" fill="none" xmlns="http://www.w3.org/2000/svg">
<path d="M10.7194 17.4091C12.278 15.4586 15.8327 10.7311 15.8327 8.07576C15.8327 4.85528 13.2198 2.24243 9.99935 2.24243C6.77886 2.24243 4.16602 4.85528 4.16602 8.07576C4.16602 10.7311 7.7207 15.4586 9.2793 17.4091C9.65299 17.8739 10.3457 17.8739 10.7194 17.4091ZM9.99935 6.13132C10.515 6.13132 11.0096 6.33618 11.3743 6.70083C11.7389 7.06549 11.9438 7.56007 11.9438 8.07576C11.9438 8.59146 11.7389 9.08604 11.3743 9.45069C11.0096 9.81535 10.515 10.0202 9.99935 10.0202C9.48365 10.0202 8.98907 9.81535 8.62442 9.45069C8.25976 9.08604 8.0549 8.59146 8.0549 8.07576C8.0549 7.56007 8.25976 7.06549 8.62442 6.70083C8.98907 6.33618 9.48365 6.13132 9.99935 6.13132Z" fill="#4F4F4F"/>
</svg>
